<svg xmlns="http://www.w3.org/2000/svg" xmlns:svg="http://www.w3.org/2000/svg" xmlns:xlink="http://www.w3.org/1999/xlink" id="svg2" width="100.1" height="100.1" version="1.1" viewBox="0 0 100.1 100.1"><defs id="defs4"><linearGradient id="linearGradient4222"><stop style="stop-color:#000;stop-opacity:1" id="stop4224" offset="0"/><stop style="stop-color:#000;stop-opacity:0" id="stop4226" offset="1"/></linearGradient><radialGradient id="radialGradient4228" cx="351.158" cy="404.871" r="145.738" fx="351.158" fy="404.871" gradientTransform="matrix(0.22545184,0,0,0.22545184,98.45712,453.22967)" gradientUnits="userSpaceOnUse" xlink:href="#linearGradient4222"/></defs><metadata id="metadata7"/><g id="layer1" transform="translate(-127.06539,-487.04911)"><g id="g4709" transform="translate(0,-6.6843306)"><path id="path4136-57" d="m 317.4888,325.36594 -291.525725,0 L 171.72594,72.897263 Z" transform="matrix(0.08564555,-0.14834245,0.14840495,0.08568164,126.61391,519.75258)" style="opacity:1;fill:#426a90;fill-opacity:1;stroke:#426a90;stroke-width:1.24323523;stroke-linecap:round;stroke-linejoin:round;stroke-miterlimit:4;stroke-dasharray:none;stroke-dashoffset:0;stroke-opacity:1"/><path id="path4136-7" d="m 317.4888,325.36594 -291.525725,0 L 171.72594,72.897263 Z" transform="matrix(0.08564555,-0.14834245,0.14840495,0.08568164,101.64602,563.01644)" style="opacity:1;fill:#f04085;fill-opacity:1;stroke:#f04085;stroke-width:1.24323523;stroke-linecap:round;stroke-linejoin:round;stroke-miterlimit:4;stroke-dasharray:none;stroke-dashoffset:0;stroke-opacity:1"/><path id="path4136" d="m 317.4888,325.36594 -291.525725,0 L 171.72594,72.897263 Z" transform="matrix(0.08564555,-0.14834245,0.14840495,0.08568164,151.58179,563.01644)" style="opacity:1;fill:#009688;fill-opacity:1;stroke:#009688;stroke-width:1.24323523;stroke-linecap:round;stroke-linejoin:round;stroke-miterlimit:4;stroke-dasharray:none;stroke-dashoffset:0;stroke-opacity:1"/><circle id="path4220" cx="177.626" cy="544.509" r="32.857" style="opacity:.5270004;fill:url(#radialGradient4228);fill-opacity:1;stroke:none;stroke-width:2.70000005;stroke-linecap:round;stroke-miterlimit:4;stroke-dasharray:none;stroke-dashoffset:0;stroke-opacity:1"/><path id="path4136-2" d="m 317.4888,325.36594 -291.525725,0 L 171.72594,72.897263 Z" transform="matrix(0.17129111,0,0,0.17136328,172.6762,488.04149)" style="opacity:1;fill:#6690b9;fill-opacity:1;stroke:#6690b9;stroke-width:1.24323523;stroke-linecap:round;stroke-linejoin:round;stroke-miterlimit:4;stroke-dasharray:none;stroke-dashoffset:0;stroke-opacity:1"/><path id="path4136-59" d="m 317.4888,325.36594 -291.525725,0 L 171.72594,72.897263 Z" transform="matrix(0.17129111,0,0,0.17136328,122.72466,488.03237)" style="opacity:1;fill:#f46fa3;fill-opacity:1;stroke:#f46fa3;stroke-width:1.24323523;stroke-linecap:round;stroke-linejoin:round;stroke-miterlimit:4;stroke-dasharray:none;stroke-dashoffset:0;stroke-opacity:1"/><path id="path4136-5" d="m 317.4888,325.36594 -291.525725,0 L 171.72594,72.897263 Z" transform="matrix(0.17129111,0,0,0.17136328,147.70832,531.28713)" style="opacity:1;fill:#4db6ac;fill-opacity:1;stroke:#4db6ac;stroke-width:1.24323523;stroke-linecap:round;stroke-linejoin:round;stroke-miterlimit:4;stroke-dasharray:none;stroke-dashoffset:0;stroke-opacity:1"/></g></g></svg>